<svg width="512" height="512" viewBox="0 0 512 512" fill="none" xmlns="http://www.w3.org/2000/svg">
<path d="M284.286 256.002L506.143 34.144C513.954 26.333 513.954 13.669 506.143 5.85901C498.332 -1.95099 485.668 -1.95199 477.858 5.85901L256 227.717L34.143 5.85901C26.332 -1.95199 13.668 -1.95199 5.85801 5.85901C-1.95199 13.67 -1.95299 26.334 5.85801 34.144L227.715 256.001L5.85801 477.859C-1.95299 485.67 -1.95299 498.334 5.85801 506.144C9.76301 510.049 14.882 512.001 20.001 512.001C25.12 512.001 30.238 510.049 34.144 506.144L256 284.287L477.857 506.144C481.762 510.049 486.881 512.001 492 512.001C497.119 512.001 502.237 510.049 506.143 506.144C513.954 498.333 513.954 485.669 506.143 477.859L284.286 256.002Z" fill="#0C0537" fill-opacity="0.8"/>
</svg>
