<svg width="512" height="512" viewBox="0 0 512 512" fill="none" xmlns="http://www.w3.org/2000/svg">
<g clip-path="url(#clip0)">
<g filter="url(#filter0_d)">
<path d="M284.286 256.002L506.143 34.144C513.954 26.333 513.954 13.669 506.143 5.85901C498.332 -1.95099 485.668 -1.95199 477.858 5.85901L256 227.717L34.143 5.85901C26.332 -1.95199 13.668 -1.95199 5.85801 5.85901C-1.95199 13.67 -1.95299 26.334 5.85801 34.144L227.715 256.001L5.85801 477.859C-1.95299 485.67 -1.95299 498.334 5.85801 506.144C9.76301 510.049 14.882 512.001 20.001 512.001C25.12 512.001 30.238 510.049 34.144 506.144L256 284.287L477.857 506.144C481.762 510.049 486.881 512.001 492 512.001C497.119 512.001 502.237 510.049 506.143 506.144C513.954 498.333 513.954 485.669 506.143 477.859L284.286 256.002Z" fill="#FEFEFE" fill-opacity="0.8"/>
<path d="M283.932 255.648L283.579 256.002L283.932 256.356L505.789 478.213C513.405 485.827 513.405 498.175 505.789 505.79C501.981 509.598 496.992 511.501 492 511.501C487.008 511.501 482.018 509.598 478.211 505.79L256.354 283.933L256 283.58L255.646 283.933L33.7905 505.79C29.982 509.598 24.9928 511.501 20.001 511.501C15.0091 511.501 10.019 509.598 6.21156 505.79L5.85801 506.144L6.21154 505.79C-1.40416 498.176 -1.40419 485.828 6.21156 478.213L228.069 256.355L228.422 256.001L228.069 255.647L6.21156 33.7905L6.21154 33.7904C-1.40413 26.1757 -1.40323 13.8283 6.21158 6.21254C13.8263 -1.40315 26.1737 -1.40318 33.7894 6.21257L255.646 228.071L256 228.424L256.354 228.071L478.212 6.21257L477.858 5.85901L478.212 6.21254C485.826 -1.40312 498.174 -1.40222 505.789 6.21259C513.405 13.8273 513.405 26.1747 505.789 33.7905L283.932 255.648Z" stroke="white"/>
</g>
</g>
<defs>
<filter id="filter0_d" x="-4.00024" y="0.000762939" width="520.002" height="520" filterUnits="userSpaceOnUse" color-interpolation-filters="sRGB">
<feFlood flood-opacity="0" result="BackgroundImageFix"/>
<feColorMatrix in="SourceAlpha" type="matrix" values="0 0 0 0 0 0 0 0 0 0 0 0 0 0 0 0 0 0 127 0"/>
<feOffset dy="4"/>
<feGaussianBlur stdDeviation="2"/>
<feColorMatrix type="matrix" values="0 0 0 0 0 0 0 0 0 0 0 0 0 0 0 0 0 0 0.25 0"/>
<feBlend mode="normal" in2="BackgroundImageFix" result="effect1_dropShadow"/>
<feBlend mode="normal" in="SourceGraphic" in2="effect1_dropShadow" result="shape"/>
</filter>
<clipPath id="clip0">
<rect width="512" height="512" fill="white"/>
</clipPath>
</defs>
</svg>
